<?xml version="1.0" encoding="utf-8"?>
<!-- Generator: Adobe Illustrator 16.0.0, SVG Export Plug-In . SVG Version: 6.00 Build 0)  -->
<!DOCTYPE svg PUBLIC "-//W3C//DTD SVG 1.1//EN" "http://www.w3.org/Graphics/SVG/1.1/DTD/svg11.dtd">
<svg version="1.1" id="Layer_1" xmlns="http://www.w3.org/2000/svg" xmlns:xlink="http://www.w3.org/1999/xlink" x="0px" y="0px"
	 width="340.157px" height="340.157px" viewBox="0 0 340.157 340.157" enable-background="new 0 0 340.157 340.157"
	 xml:space="preserve">
<g>
	<g>
		<path fill-rule="evenodd" clip-rule="evenodd" fill="#FFFFFF" d="M164.842,17.05c3.149-1.82,7.037-1.82,10.188,0l84.389,48.699
			c3.154,1.82,5.098,5.184,5.098,8.828v97.471c0,3.64-1.943,7.005-5.094,8.828l-84.389,48.738c-3.154,1.821-7.042,1.821-10.195,0
			L80.47,180.876c-3.15-1.823-5.094-5.188-5.094-8.828V74.573c0-3.641,1.944-7.004,5.097-8.824L164.842,17.05z"/>
	</g>
	<g>
		<path fill-rule="evenodd" clip-rule="evenodd" fill="#EDEDED" d="M165.218,24.91c2.919-1.686,6.521-1.686,9.438,0l78.148,45.097
			c2.922,1.686,4.719,4.8,4.719,8.175v90.265c0,3.372-1.797,6.487-4.717,8.175l-78.15,45.134c-2.918,1.687-6.519,1.687-9.441,0
			l-78.128-45.134c-2.919-1.688-4.717-4.803-4.717-8.175V78.178c0-3.372,1.798-6.486,4.721-8.171L165.218,24.91z"/>
	</g>
	<g>
		<path fill="#287FC1" d="M199.885,155.389v-17.185l-11.471-13.974l-9.518,11.604l19.871,24.229c1.455,1.775,3.57,2.694,5.699,2.694
			c0.361,0,0.725-0.031,1.086-0.084C202.352,162.159,199.885,159.099,199.885,155.389z"/>
		<path fill="#287FC1" d="M165.766,96.646c-2.581-3.148-7.291-3.464-10.435-0.887c-3.15,2.582-3.216,7.423-0.633,10.572
			l14.669,17.887l9.514-11.598L165.766,96.646z"/>
		<path fill="#287FC1" d="M199.885,110.244V91.279c0-3.98,2.838-7.211,6.373-7.355c-2.244-0.105-4.508,0.808-6.045,2.681
			l-21.332,26.014l9.533,11.611L199.885,110.244z"/>
		<path fill="#287FC1" d="M149.846,148.02h3.426c2.405,0,6.543,3.297,6.543,7.369c0,3.993-4.328,7.236-6.764,7.358
			c0.093,0.003,0.185,0.012,0.278,0.012c2.13,0,4.246-0.919,5.699-2.694l19.87-24.229l-9.529-11.618L149.846,148.02z"/>
		<polygon fill="#005CA4" points="178.881,112.619 169.368,124.217 178.897,135.835 188.415,124.23 		"/>
		<path fill="#297CB9" d="M133.651,148.02h7.864V91.279c0-4.073-3.3-7.37-7.372-7.37c-4.07,0-7.37,3.297-7.37,7.37v64.109
			C126.773,151.317,131.249,148.02,133.651,148.02z"/>
		<path fill="#287FC1" d="M147.635,150.718l2.211-2.698h-8.331v7.369c0,4.071-3.3,7.37-7.372,7.37h18.762
			c0.046,0,0.096-0.008,0.145-0.012c-1.552-0.058-3.097-0.598-4.392-1.658C145.51,158.509,145.054,153.861,147.635,150.718z"/>
		<path fill="#005CA4" d="M159.814,155.389c0-4.071-4.138-7.369-6.543-7.369h-3.426l-2.211,2.698
			c-2.581,3.144-2.125,7.792,1.024,10.372c1.294,1.06,2.839,1.6,4.392,1.658C155.486,162.625,159.814,159.382,159.814,155.389z"/>
		<path fill="#005CA4" d="M141.515,155.389v-7.369h-7.864c-2.402,0-6.878,3.297-6.878,7.369c0,2.286,1.2,4.329,2.678,5.681
			c1.273,1.055,2.909,1.689,4.692,1.689C138.215,162.759,141.515,159.459,141.515,155.389z"/>
		<path fill="#287FC1" d="M211.608,95.95l-11.723,14.293v27.96l10.275,12.514c2.58,3.144,2.121,7.792-1.021,10.372
			c-1.07,0.875-2.311,1.395-3.586,1.585c0.309,0.049,0.627,0.084,0.951,0.084c3.652,0,6.615-3.299,6.615-7.37V92.793
			C212.885,93.916,212.387,95,211.608,95.95z"/>
		<path fill="#005CA4" d="M210.161,150.718l-10.275-12.514v17.185c0,3.71,2.467,6.77,5.668,7.286
			c1.275-0.19,2.516-0.711,3.586-1.585C212.282,158.509,212.741,153.861,210.161,150.718z"/>
		<path fill="#005CA4" d="M199.885,91.279v18.964l11.723-14.293c0.779-0.951,1.277-2.035,1.512-3.157v-1.514
			c0-1.762-0.557-3.378-1.48-4.646c-0.309-0.378-0.658-0.73-1.053-1.051c-1.275-1.048-2.797-1.587-4.328-1.658
			C202.723,84.068,199.885,87.299,199.885,91.279z"/>
	</g>
</g>
<g>
	<g>
		<path fill="#EDEDED" d="M12.802,265.18l0.122,5.361c1.888-4.081,6.154-5.666,9.992-5.666c2.253-0.062,4.448,0.549,6.458,1.767
			l-1.34,2.438c-1.583-0.975-3.35-1.4-5.117-1.4c-5.605,0.061-9.93,4.567-9.93,10.051v17.547H10V265.18H12.802z"/>
		<path fill="#EDEDED" d="M32.179,280.229c0-9.017,6.824-15.535,15.292-15.535c8.468,0,16.023,5.179,14.864,16.938h-27.11
			c0.61,7.065,6.033,11.147,12.246,11.147c3.961,0,8.59-1.585,10.845-4.57l2.132,1.706c-2.925,3.84-8.163,5.788-12.977,5.788
			C39.003,295.702,32.179,289.794,32.179,280.229z M59.656,279.011c-0.062-7.434-4.936-11.577-12.186-11.577
			c-6.212,0-11.575,4.205-12.246,11.577H59.656z"/>
		<path fill="#EDEDED" d="M96.213,307.826V288.33c-2.559,4.996-7.311,7.495-12.427,7.495c-8.47,0-15.293-5.485-15.293-15.597
			c0-9.688,6.458-15.17,14.621-15.476c5.849,0,10.663,2.986,13.038,7.555v-7.128h2.924v42.646H96.213z M95.968,280.29
			c0-7.372-5.176-12.673-12.182-12.673c-6.824,0-12.308,4.142-12.308,12.611c0,8.468,5.484,12.731,12.308,12.731
			C90.67,292.96,95.968,287.662,95.968,280.29z"/>
		<path fill="#EDEDED" d="M131.188,295.276v-5.422c-2.314,4.143-6.519,5.848-10.724,5.909c-8.04,0-13.584-4.936-13.584-13.28V265.12
			h2.985v17.302c0,6.823,4.203,10.477,10.723,10.418c6.214-0.062,10.539-4.752,10.539-10.967V265.12h2.988v30.156H131.188z"/>
		<path fill="#EDEDED" d="M145.936,255.371c0,3.169-4.812,3.169-4.812,0C141.124,252.203,145.936,252.203,145.936,255.371z
			 M141.976,265.059v30.218h2.986v-30.218H141.976z"/>
		<path fill="#EDEDED" d="M156.293,265.18l0.122,5.361c1.888-4.081,6.152-5.666,9.99-5.666c2.255-0.062,4.451,0.549,6.46,1.767
			l-1.34,2.438c-1.586-0.975-3.352-1.4-5.121-1.4c-5.603,0.061-9.931,4.567-9.931,10.051v17.547h-2.984V265.18H156.293z"/>
		<path fill="#EDEDED" d="M175.672,280.229c0-9.017,6.822-15.535,15.291-15.535c8.467,0,16.023,5.179,14.865,16.938h-27.113
			c0.613,7.065,6.033,11.147,12.248,11.147c3.961,0,8.588-1.585,10.844-4.57l2.133,1.706c-2.924,3.84-8.162,5.788-12.977,5.788
			C182.495,295.702,175.672,289.794,175.672,280.229z M203.149,279.011c-0.062-7.434-4.936-11.577-12.186-11.577
			c-6.215,0-11.576,4.205-12.248,11.577H203.149z"/>
		<path fill="#EDEDED" d="M234.223,250.924c-15.355,10.724-16.146,37.468,0,49.165l-1.584,2.375
			c-17.85-11.514-17.85-42.341,0-53.854L234.223,250.924z"/>
		<path fill="#EDEDED" d="M264.081,252.629v42.647h-2.986v-42.647H264.081z"/>
		<path fill="#EDEDED" d="M283.028,277.486l8.957-12.307h3.592v0.121l-10.783,14.379l11.637,15.474v0.123h-3.535l-9.867-13.465
			l-9.871,13.465h-3.533v-0.123l11.637-15.474l-10.783-14.379v-0.121h3.592L283.028,277.486z"/>
		<path fill="#EDEDED" d="M318.125,248.609c17.852,11.514,17.852,42.341,0,53.854l-1.588-2.375
			c16.146-11.697,15.357-38.441,0-49.165L318.125,248.609z"/>
	</g>
	<rect x="244.45" y="252.116" fill="#EDEDED" width="2.539" height="10.438"/>
	<rect x="305.381" y="252.116" fill="#EDEDED" width="2.539" height="10.438"/>
</g>
</svg>
