<?xml version="1.0" encoding="utf-8"?>
<!-- Generator: Adobe Illustrator 16.0.0, SVG Export Plug-In . SVG Version: 6.00 Build 0)  -->
<!DOCTYPE svg PUBLIC "-//W3C//DTD SVG 1.1//EN" "http://www.w3.org/Graphics/SVG/1.1/DTD/svg11.dtd">
<svg version="1.1" id="Layer_1" xmlns="http://www.w3.org/2000/svg" xmlns:xlink="http://www.w3.org/1999/xlink" x="0px" y="0px"
	 width="340.157px" height="340.157px" viewBox="0 0 340.157 340.157" enable-background="new 0 0 340.157 340.157"
	 xml:space="preserve">
<rect x="57.959" y="278.219" fill="none" width="204.257" height="0"/>
<g>
	<g>
		<path fill="#5B5C5C" d="M24.318,266.476l0.109,4.829c1.701-3.677,5.541-5.102,8.998-5.102c2.03-0.058,4.004,0.494,5.815,1.588
			l-1.207,2.196c-1.426-0.877-3.017-1.261-4.608-1.261c-5.048,0.054-8.944,4.114-8.944,9.052v15.802h-2.688v-27.104H24.318z"/>
		<path fill="#5B5C5C" d="M41.767,280.027c0-8.117,6.146-13.989,13.773-13.989c7.627,0,14.43,4.663,13.388,15.253H44.511
			c0.549,6.365,5.431,10.041,11.028,10.041c3.566,0,7.736-1.429,9.767-4.116l1.92,1.535c-2.633,3.46-7.353,5.214-11.687,5.214
			C47.912,293.965,41.767,288.645,41.767,280.027z M66.513,278.933c-0.055-6.696-4.445-10.426-10.974-10.426
			c-5.597,0-10.426,3.785-11.028,10.426H66.513z"/>
		<path fill="#5B5C5C" d="M99.438,304.885v-17.561c-2.304,4.501-6.584,6.75-11.195,6.75c-7.625,0-13.77-4.939-13.77-14.047
			c0-8.723,5.815-13.661,13.167-13.936c5.268,0,9.603,2.688,11.742,6.803v-6.419h2.633v38.409H99.438z M99.217,280.084
			c0-6.638-4.662-11.414-10.975-11.414c-6.144,0-11.082,3.73-11.082,11.357c0,7.629,4.938,11.469,11.082,11.469
			C94.445,291.496,99.217,286.723,99.217,280.084z"/>
		<path fill="#5B5C5C" d="M130.936,293.58v-4.882c-2.084,3.73-5.87,5.267-9.658,5.321c-7.242,0-12.234-4.443-12.234-11.961v-15.636
			h2.688v15.583c0,6.145,3.786,9.434,9.655,9.381c5.598-0.055,9.492-4.278,9.492-9.876v-15.088h2.692v27.157H130.936z"/>
		<path fill="#5B5C5C" d="M144.217,257.643c0,2.852-4.334,2.852-4.334,0C139.883,254.787,144.217,254.787,144.217,257.643z
			 M140.651,266.366v27.214h2.688v-27.214H140.651z"/>
		<path fill="#5B5C5C" d="M153.546,266.476l0.11,4.829c1.7-3.677,5.541-5.102,8.997-5.102c2.03-0.058,4.007,0.494,5.818,1.588
			l-1.206,2.196c-1.429-0.877-3.019-1.261-4.612-1.261c-5.044,0.054-8.943,4.114-8.943,9.052v15.802h-2.688v-27.104H153.546z"/>
		<path fill="#5B5C5C" d="M170.999,280.027c0-8.117,6.145-13.989,13.772-13.989c7.623,0,14.43,4.663,13.388,15.253H173.74
			c0.551,6.365,5.435,10.041,11.031,10.041c3.565,0,7.733-1.429,9.764-4.116l1.921,1.535c-2.633,3.46-7.352,5.214-11.685,5.214
			C177.143,293.965,170.999,288.645,170.999,280.027z M195.745,278.933c-0.057-6.696-4.446-10.426-10.974-10.426
			c-5.597,0-10.427,3.785-11.031,10.426H195.745z"/>
		<path fill="#5B5C5C" d="M223.728,253.635c-13.828,9.659-14.54,33.746,0,44.279l-1.426,2.142
			c-16.076-10.369-16.076-38.135,0-48.505L223.728,253.635z"/>
		<path fill="#287FC1" d="M250.618,255.171v38.409h-2.688v-38.409H250.618z"/>
		<path fill="#287FC1" d="M267.684,277.56l8.064-11.084h3.236v0.11l-9.711,12.948l10.479,13.937v0.109h-3.182l-8.887-12.126
			l-8.89,12.126h-3.183v-0.109l10.479-13.937l-9.711-12.948v-0.11h3.236L267.684,277.56z"/>
		<path fill="#5B5C5C" d="M299.292,251.551c16.078,10.37,16.078,38.136,0,48.505l-1.428-2.142c14.539-10.533,13.828-34.62,0-44.279
			L299.292,251.551z"/>
	</g>
	<rect x="232.941" y="254.71" fill="#5B5C5C" width="2.285" height="9.402"/>
	<rect x="287.815" y="254.71" fill="#5B5C5C" width="2.287" height="9.402"/>
</g>
<path fill-rule="evenodd" clip-rule="evenodd" fill="#3396CC" d="M161.713,25.512c2.915-1.684,6.508-1.684,9.429,0l78.085,45.061
	c2.918,1.687,4.717,4.797,4.717,8.167v90.192c0,3.367-1.799,6.479-4.715,8.167l-78.087,45.1c-2.921,1.686-6.514,1.686-9.434,0
	l-78.066-45.1c-2.916-1.688-4.714-4.8-4.714-8.167V78.738c0-3.368,1.798-6.479,4.717-8.166L161.713,25.512z"/>
<g>
	<path fill-rule="evenodd" clip-rule="evenodd" fill="#287FC1" d="M162.062,32.784c2.7-1.56,6.028-1.56,8.732,0l72.311,41.729
		c2.702,1.559,4.367,4.442,4.367,7.564v83.524c0,3.118-1.665,6-4.365,7.562l-72.311,41.762c-2.706,1.562-6.034,1.562-8.737,0
		l-72.293-41.762c-2.701-1.562-4.365-4.444-4.365-7.562V82.075c0-3.121,1.665-6.004,4.368-7.562L162.062,32.784z"/>
</g>
<g>
	<polygon fill="none" points="194.033,137.63 194.033,111.774 183.422,124.711 	"/>
	<path fill="#005EA9" d="M162.476,99.195c-2.388-2.912-6.744-3.206-9.65-0.822c-2.915,2.389-2.976,6.867-0.587,9.777l13.568,16.542
		l8.797-10.726L162.476,99.195z"/>
	<path fill="#005EA9" d="M194.033,153.525V137.63l-10.61-12.919l-8.801,10.731L193,157.849c1.347,1.643,3.303,2.495,5.272,2.495
		c0.357,0,0.722-0.035,1.077-0.093C196.356,159.808,194.033,156.98,194.033,153.525z"/>
	<path fill="#005EA9" d="M147.748,146.713h3.171c2.228,0,6.05,3.046,6.05,6.812c0,3.692-3.996,6.684-6.246,6.795
		c0.083,0.003,0.167,0.023,0.253,0.023c1.969,0,3.926-0.852,5.268-2.495l18.379-22.407l-8.814-10.75L147.748,146.713z"/>
	<path fill="#287FC1" d="M206.27,95.494c0.328-1.743-0.026-3.558-1.036-5.057c0.654,1.083,1.036,2.388,1.036,3.793V95.494z"/>
	<path fill="#005EA9" d="M194.033,111.774V94.23c0-3.671,2.613-6.639,5.875-6.79c-2.072-0.086-4.156,0.742-5.572,2.468
		l-19.731,24.058l8.818,10.745L194.033,111.774z"/>
	<polygon fill="#164B9D" points="174.604,113.966 165.807,124.692 174.622,135.442 183.422,124.711 	"/>
	<path fill="#005EA9" d="M132.772,146.713h7.273V94.23c0-3.764-3.053-6.816-6.816-6.816c-3.767,0-6.816,3.052-6.816,6.816v59.294
		C126.414,149.759,130.552,146.713,132.772,146.713z"/>
	<path fill="#287FC1" d="M126.414,153.525c0,2.061,0.937,3.888,2.383,5.141C127.476,157.413,126.414,155.586,126.414,153.525z"/>
	<path fill="#005EA9" d="M145.705,149.205l2.042-2.491h-7.702v6.812c0,3.765-3.053,6.818-6.816,6.818h17.353
		c0.041,0,0.096-0.021,0.139-0.023c-1.441-0.051-2.871-0.54-4.07-1.522C143.742,156.411,143.319,152.114,145.705,149.205z"/>
	<path fill="#287FC1" d="M132.15,160.343h1.08c-1.703,0-3.238-0.648-4.434-1.678C129.885,159.695,131.144,160.343,132.15,160.343z"
		/>
	<path fill="#164B9D" d="M156.968,153.525c0-3.766-3.822-6.812-6.05-6.812h-3.171l-2.042,2.491
		c-2.386,2.909-1.963,7.207,0.947,9.593c1.199,0.982,2.628,1.471,4.07,1.522C152.972,160.208,156.968,157.217,156.968,153.525z"/>
	<path fill="#164B9D" d="M140.046,153.525v-6.812h-7.273c-2.221,0-6.359,3.046-6.359,6.812c0,2.061,1.062,3.888,2.383,5.141
		c1.195,1.03,2.73,1.678,4.434,1.678C136.993,160.343,140.046,157.29,140.046,153.525z"/>
	<path fill="#005EA9" d="M204.878,98.553l-10.846,13.221v25.855l9.503,11.575c2.385,2.909,1.962,7.207-0.948,9.593
		c-0.966,0.792-2.084,1.269-3.238,1.453c0.268,0.042,0.529,0.093,0.808,0.093c3.373,0,6.113-3.054,6.113-6.818V95.494
		C206.063,96.581,205.626,97.638,204.878,98.553z"/>
	<path fill="#164B9D" d="M203.536,149.205l-9.503-11.575v15.895c0,3.456,2.323,6.283,5.316,6.725
		c1.154-0.184,2.272-0.66,3.238-1.453C205.498,156.411,205.92,152.114,203.536,149.205z"/>
	<path fill="#164B9D" d="M194.033,94.23v17.544l10.846-13.221c0.748-0.916,1.185-1.972,1.392-3.059V94.23
		c0-1.405-0.382-2.709-1.036-3.793c-0.011-0.021-0.024-0.037-0.035-0.053c-0.132-0.213-0.288-0.399-0.439-0.591
		c-0.253-0.296-0.517-0.581-0.826-0.833c-1.188-0.973-2.602-1.456-4.025-1.519C196.646,87.592,194.033,90.56,194.033,94.23z"/>
</g>
</svg>
