<?xml version="1.0" encoding="utf-8"?>
<!-- Generator: Adobe Illustrator 16.0.0, SVG Export Plug-In . SVG Version: 6.00 Build 0)  -->
<!DOCTYPE svg PUBLIC "-//W3C//DTD SVG 1.1//EN" "http://www.w3.org/Graphics/SVG/1.1/DTD/svg11.dtd">
<svg version="1.1" id="Layer_1" xmlns="http://www.w3.org/2000/svg" xmlns:xlink="http://www.w3.org/1999/xlink" x="0px" y="0px"
	 width="340.157px" height="340.157px" viewBox="0 0 340.157 340.157" enable-background="new 0 0 340.157 340.157"
	 xml:space="preserve">
<g>
	<g>
		<path fill="#333333" d="M12.802,265.18l0.122,5.361c1.888-4.081,6.154-5.666,9.992-5.666c2.253-0.062,4.448,0.549,6.458,1.767
			l-1.34,2.438c-1.583-0.975-3.35-1.4-5.117-1.4c-5.605,0.061-9.93,4.567-9.93,10.051v17.547H10V265.18H12.802z"/>
		<path fill="#333333" d="M32.179,280.229c0-9.017,6.824-15.535,15.292-15.535c8.468,0,16.023,5.179,14.864,16.938h-27.11
			c0.61,7.065,6.033,11.147,12.246,11.147c3.961,0,8.59-1.585,10.845-4.57l2.132,1.706c-2.925,3.84-8.163,5.788-12.977,5.788
			C39.003,295.702,32.179,289.794,32.179,280.229z M59.656,279.011c-0.062-7.434-4.936-11.577-12.186-11.577
			c-6.212,0-11.575,4.205-12.246,11.577H59.656z"/>
		<path fill="#333333" d="M96.213,307.826V288.33c-2.559,4.996-7.311,7.495-12.427,7.495c-8.47,0-15.293-5.485-15.293-15.597
			c0-9.688,6.458-15.17,14.621-15.476c5.849,0,10.663,2.986,13.038,7.555v-7.128h2.924v42.646H96.213z M95.968,280.29
			c0-7.372-5.176-12.673-12.182-12.673c-6.824,0-12.308,4.142-12.308,12.611c0,8.468,5.484,12.731,12.308,12.731
			C90.67,292.96,95.968,287.662,95.968,280.29z"/>
		<path fill="#333333" d="M131.188,295.276v-5.422c-2.314,4.143-6.519,5.848-10.724,5.909c-8.04,0-13.584-4.936-13.584-13.28V265.12
			h2.985v17.302c0,6.823,4.203,10.477,10.723,10.418c6.214-0.062,10.539-4.752,10.539-10.967V265.12h2.988v30.156H131.188z"/>
		<path fill="#333333" d="M145.936,255.371c0,3.169-4.812,3.169-4.812,0C141.124,252.203,145.936,252.203,145.936,255.371z
			 M141.976,265.059v30.218h2.986v-30.218H141.976z"/>
		<path fill="#333333" d="M156.293,265.18l0.122,5.361c1.888-4.081,6.152-5.666,9.99-5.666c2.255-0.062,4.451,0.549,6.46,1.767
			l-1.34,2.438c-1.586-0.975-3.352-1.4-5.121-1.4c-5.603,0.061-9.931,4.567-9.931,10.051v17.547h-2.984V265.18H156.293z"/>
		<path fill="#333333" d="M175.672,280.229c0-9.017,6.822-15.535,15.291-15.535c8.467,0,16.023,5.179,14.865,16.938h-27.113
			c0.613,7.065,6.033,11.147,12.248,11.147c3.961,0,8.588-1.585,10.844-4.57l2.133,1.706c-2.924,3.84-8.162,5.788-12.977,5.788
			C182.495,295.702,175.672,289.794,175.672,280.229z M203.149,279.011c-0.062-7.434-4.936-11.577-12.186-11.577
			c-6.215,0-11.576,4.205-12.248,11.577H203.149z"/>
		<path fill="#333333" d="M234.223,250.924c-15.355,10.724-16.146,37.468,0,49.165l-1.584,2.375
			c-17.85-11.514-17.85-42.341,0-53.854L234.223,250.924z"/>
		<path fill="#333333" d="M264.081,252.629v42.647h-2.986v-42.647H264.081z"/>
		<path fill="#333333" d="M283.028,277.486l8.957-12.307h3.592v0.121l-10.783,14.379l11.637,15.474v0.123h-3.535l-9.867-13.465
			l-9.871,13.465h-3.533v-0.123l11.637-15.474l-10.783-14.379v-0.121h3.592L283.028,277.486z"/>
		<path fill="#333333" d="M318.125,248.609c17.852,11.514,17.852,42.341,0,53.854l-1.588-2.375
			c16.146-11.697,15.357-38.441,0-49.165L318.125,248.609z"/>
	</g>
	<rect x="244.45" y="252.116" fill="#333333" width="2.539" height="10.438"/>
	<rect x="305.381" y="252.116" fill="#333333" width="2.539" height="10.438"/>
</g>
<g>
	<g>
		<path fill-rule="evenodd" clip-rule="evenodd" fill="#333333" d="M164.633,26.678c2.925-1.689,6.528-1.689,9.45,0l78.268,45.167
			c2.926,1.686,4.727,4.807,4.727,8.185v90.402c0,3.376-1.801,6.498-4.723,8.186l-78.268,45.205c-2.926,1.691-6.529,1.691-9.457,0
			l-78.25-45.205c-2.922-1.688-4.723-4.81-4.723-8.186V80.027c0-3.376,1.801-6.497,4.727-8.183L164.633,26.678z"/>
	</g>
	<g>
		<path fill-rule="evenodd" clip-rule="evenodd" fill="#333333" d="M164.982,33.967c2.708-1.564,6.047-1.564,8.754,0l72.479,41.825
			c2.709,1.564,4.375,4.452,4.375,7.582v83.72c0,3.125-1.666,6.015-4.373,7.579l-72.48,41.862c-2.707,1.565-6.047,1.565-8.754,0
			l-72.464-41.862c-2.706-1.563-4.375-4.453-4.375-7.579V83.37c0-3.126,1.669-6.014,4.378-7.578L164.982,33.967z"/>
	</g>
	<path fill="#E8E8E8" d="M208.311,91.724c-0.014-0.025-0.031-0.048-0.047-0.072c-0.137-0.197-0.268-0.393-0.426-0.577
		c-1.125-1.452-2.77-2.389-4.623-2.389c-0.088,0-0.168,0.024-0.252,0.028c-2.076-0.088-4.164,0.742-5.582,2.472l-19.787,24.126
		L165.43,100.5c-2.393-2.92-6.761-3.215-9.677-0.823c-2.92,2.396-2.983,6.885-0.587,9.805l13.605,16.59l-18.108,22.078h-7.724
		V95.522c0-3.776-3.062-6.836-6.837-6.836s-6.835,3.06-6.835,6.836v59.459c0,2.069,0.939,3.9,2.392,5.155
		c1.092,1.033,2.354,1.68,3.364,1.68h18.481c0.064,0,0.135-0.011,0.2-0.016c0.064,0.001,0.128,0.016,0.192,0.016
		c1.976,0,3.938-0.853,5.285-2.499l18.429-22.471l18.43,22.471c1.35,1.646,3.312,2.499,5.287,2.499c0.361,0,0.723-0.033,1.082-0.091
		c0.264,0.041,0.529,0.091,0.807,0.091c3.385,0,6.133-3.061,6.133-6.835V96.785C209.678,95.04,209.319,93.225,208.311,91.724z
		 M186.438,126.083l10.639-12.972v25.931L186.438,126.083z"/>
</g>
</svg>
