<?xml version="1.0" encoding="utf-8"?>
<!-- Generator: Adobe Illustrator 16.0.0, SVG Export Plug-In . SVG Version: 6.00 Build 0)  -->
<!DOCTYPE svg PUBLIC "-//W3C//DTD SVG 1.1//EN" "http://www.w3.org/Graphics/SVG/1.1/DTD/svg11.dtd">
<svg version="1.1" id="Layer_1" xmlns="http://www.w3.org/2000/svg" xmlns:xlink="http://www.w3.org/1999/xlink" x="0px" y="0px"
	 width="340.157px" height="113.387px" viewBox="0 0 340.157 113.387" enable-background="new 0 0 340.157 113.387"
	 xml:space="preserve">
<path fill="#3395CC" d="M54.077,7.79c1.449-0.837,3.236-0.837,4.688,0l38.829,22.406c1.451,0.84,2.346,2.387,2.346,4.062v44.85
	c0,1.674-0.895,3.223-2.345,4.062l-38.829,22.427c-1.452,0.838-3.239,0.838-4.69,0L15.256,83.17
	c-1.451-0.839-2.344-2.388-2.344-4.062V34.258c0-1.675,0.893-3.222,2.345-4.062L54.077,7.79z"/>
<g>
	<path fill="#287FC0" d="M54.25,11.405c1.342-0.774,2.998-0.774,4.342,0l35.957,20.751c1.345,0.775,2.172,2.209,2.172,3.762v41.535
		c0,1.55-0.827,2.982-2.17,3.76L58.593,101.98c-1.345,0.776-3.001,0.776-4.344,0l-35.95-20.768c-1.344-0.776-2.171-2.21-2.171-3.76
		V35.917c0-1.553,0.827-2.985,2.172-3.762L54.25,11.405z"/>
</g>
<g>
	<polygon fill="none" points="70.147,63.543 70.147,50.686 64.872,57.118 	"/>
	<path fill="#005DA7" d="M54.455,44.429c-1.186-1.447-3.352-1.594-4.798-0.408c-1.45,1.188-1.48,3.414-0.292,4.861l6.747,8.227
		l4.374-5.334L54.455,44.429z"/>
	<path fill="#005DA7" d="M70.147,71.447v-7.903l-5.275-6.425l-4.377,5.336l9.14,11.143c0.67,0.817,1.642,1.24,2.621,1.24
		c0.178,0,0.358-0.019,0.536-0.046C71.303,74.571,70.147,73.165,70.147,71.447z"/>
	<path fill="#005DA7" d="M47.131,68.059h1.577c1.106,0,3.009,1.514,3.009,3.388c0,1.835-1.988,3.323-3.106,3.38
		c0.04,0.001,0.084,0.011,0.125,0.011c0.979,0,1.953-0.423,2.62-1.24l9.139-11.143l-4.383-5.346L47.131,68.059z"/>
	<path fill="#287FC0" d="M76.233,42.59c0.164-0.866-0.014-1.77-0.516-2.516c0.326,0.539,0.516,1.188,0.516,1.887V42.59z"/>
	<path fill="#005DA7" d="M70.147,50.686V41.96c0-1.825,1.301-3.301,2.922-3.375c-1.03-0.044-2.066,0.368-2.771,1.228l-9.812,11.962
		l4.386,5.344L70.147,50.686z"/>
	<polygon fill="#154B9C" points="60.486,51.775 56.112,57.109 60.495,62.454 64.872,57.118 	"/>
	<path fill="#005DA7" d="M39.686,68.059h3.615V41.961c0-1.871-1.518-3.39-3.389-3.39c-1.873,0-3.391,1.519-3.391,3.39v29.485
		C36.522,69.573,38.581,68.059,39.686,68.059z"/>
	<path fill="#287FC0" d="M36.522,71.447c0,1.025,0.466,1.934,1.187,2.557C37.051,73.38,36.522,72.472,36.522,71.447z"/>
	<path fill="#005DA7" d="M46.115,69.299l1.017-1.239h-3.83v3.388c0,1.872-1.518,3.391-3.389,3.391h8.629
		c0.021,0,0.048-0.01,0.069-0.011c-0.716-0.025-1.427-0.271-2.023-0.758C45.14,72.882,44.93,70.745,46.115,69.299z"/>
	<path fill="#287FC0" d="M39.376,74.837h0.536c-0.848,0-1.611-0.321-2.204-0.834C38.249,74.515,38.875,74.837,39.376,74.837z"/>
	<path fill="#154B9C" d="M51.717,71.447c0-1.874-1.902-3.388-3.009-3.388h-1.577l-1.017,1.239c-1.186,1.446-0.975,3.583,0.473,4.771
		c0.597,0.487,1.308,0.731,2.023,0.758C49.729,74.77,51.717,73.281,51.717,71.447z"/>
	<path fill="#154B9C" d="M43.301,71.447v-3.388h-3.615c-1.105,0-3.164,1.514-3.164,3.388c0,1.025,0.529,1.934,1.187,2.557
		c0.593,0.513,1.356,0.834,2.204,0.834C41.784,74.837,43.301,73.319,43.301,71.447z"/>
	<path fill="#005DA7" d="M75.542,44.111l-5.395,6.575v12.856l4.726,5.756c1.188,1.446,0.978,3.583-0.471,4.771
		c-0.479,0.395-1.037,0.631-1.61,0.723c0.133,0.021,0.263,0.046,0.401,0.046c1.678,0,3.04-1.519,3.04-3.391V42.59
		C76.13,43.131,75.914,43.656,75.542,44.111z"/>
	<path fill="#154B9C" d="M74.873,69.299l-4.726-5.756v7.903c0,1.719,1.156,3.124,2.645,3.345c0.573-0.092,1.131-0.328,1.61-0.723
		C75.85,72.882,76.06,70.745,74.873,69.299z"/>
	<path fill="#154B9C" d="M70.147,41.961v8.726l5.395-6.575c0.372-0.455,0.589-0.979,0.691-1.521v-0.629
		c0-0.698-0.189-1.348-0.516-1.886c-0.005-0.011-0.012-0.02-0.017-0.026c-0.065-0.105-0.145-0.199-0.219-0.294
		c-0.126-0.147-0.258-0.288-0.411-0.415c-0.591-0.483-1.294-0.723-2.002-0.754C71.448,38.66,70.147,40.135,70.147,41.961z"/>
</g>
<g>
	<g>
		<path fill="#5C5C5C" d="M127.985,48.989l0.071,3.168c1.116-2.41,3.637-3.348,5.904-3.348c1.331-0.036,2.627,0.324,3.814,1.044
			l-0.791,1.439c-0.936-0.575-1.98-0.827-3.023-0.827c-3.312,0.036-5.867,2.699-5.867,5.938V66.77h-1.764V48.989H127.985z"/>
		<path fill="#5C5C5C" d="M139.433,57.881c0-5.327,4.031-9.179,9.035-9.179c5.003,0,9.466,3.06,8.783,10.007h-16.019
			c0.361,4.175,3.564,6.587,7.236,6.587c2.339,0,5.074-0.938,6.406-2.7l1.26,1.008c-1.727,2.27-4.822,3.42-7.666,3.42
			C143.464,67.023,139.433,63.531,139.433,57.881z M155.667,57.161c-0.037-4.393-2.916-6.841-7.199-6.841
			c-3.672,0-6.84,2.484-7.236,6.841H155.667z"/>
		<path fill="#5C5C5C" d="M177.266,74.186V62.668c-1.512,2.951-4.32,4.428-7.343,4.428c-5.004,0-9.035-3.24-9.035-9.215
			c0-5.725,3.816-8.963,8.639-9.145c3.457,0,6.3,1.766,7.703,4.465v-4.213h1.729v25.197H177.266z M177.122,57.917
			c0-4.355-3.059-7.487-7.199-7.487c-4.031,0-7.271,2.447-7.271,7.451c0,5.003,3.24,7.521,7.271,7.521
			C173.991,65.403,177.122,62.272,177.122,57.917z"/>
		<path fill="#5C5C5C" d="M197.93,66.771v-3.203c-1.367,2.447-3.852,3.455-6.336,3.491c-4.752,0-8.027-2.916-8.027-7.847V48.954
			h1.764v10.223c0,4.031,2.484,6.189,6.336,6.155c3.672-0.036,6.228-2.809,6.228-6.479v-9.897h1.767v17.816L197.93,66.771
			L197.93,66.771z"/>
		<path fill="#5C5C5C" d="M206.643,43.194c0,1.872-2.844,1.872-2.844,0S206.643,41.322,206.643,43.194z M204.303,48.918v17.854
			h1.764V48.918H204.303z"/>
		<path fill="#5C5C5C" d="M212.762,48.989l0.072,3.168c1.115-2.41,3.635-3.348,5.901-3.348c1.332-0.036,2.63,0.324,3.815,1.044
			l-0.791,1.439c-0.938-0.575-1.979-0.827-3.024-0.827c-3.312,0.036-5.866,2.699-5.866,5.938V66.77h-1.765V48.989H212.762z"/>
		<path fill="#5C5C5C" d="M224.211,57.881c0-5.327,4.031-9.179,9.035-9.179c5.002,0,9.467,3.06,8.783,10.007h-16.021
			c0.361,4.175,3.564,6.587,7.236,6.587c2.34,0,5.074-0.938,6.406-2.7l1.26,1.008c-1.727,2.27-4.822,3.42-7.666,3.42
			C228.243,67.023,224.211,63.531,224.211,57.881z M240.446,57.161c-0.037-4.393-2.916-6.841-7.199-6.841
			c-3.672,0-6.84,2.484-7.236,6.841H240.446z"/>
		<path fill="#5C5C5C" d="M258.805,40.566c-9.072,6.336-9.539,22.139,0,29.049l-0.936,1.403c-10.547-6.803-10.547-25.017,0-31.819
			L258.805,40.566z"/>
		<path fill="#287FC0" d="M276.446,41.573v25.197h-1.764V41.573H276.446z"/>
		<path fill="#287FC0" d="M287.641,56.26l5.291-7.271h2.123v0.072l-6.371,8.495l6.875,9.143v0.072h-2.088l-5.83-7.955l-5.832,7.955
			h-2.088v-0.072l6.875-9.143l-6.371-8.495v-0.072h2.123L287.641,56.26z"/>
		<path fill="#5C5C5C" d="M308.377,39.198c10.547,6.804,10.547,25.018,0,31.819l-0.938-1.403c9.539-6.91,9.071-22.713,0-29.049
			L308.377,39.198z"/>
	</g>
	<rect x="264.848" y="41.271" fill="#5C5C5C" width="1.5" height="6.167"/>
	<rect x="300.848" y="41.271" fill="#5C5C5C" width="1.5" height="6.167"/>
</g>
</svg>
