<?xml version="1.0" encoding="utf-8"?>
<!-- Generator: Adobe Illustrator 16.0.0, SVG Export Plug-In . SVG Version: 6.00 Build 0)  -->
<!DOCTYPE svg PUBLIC "-//W3C//DTD SVG 1.1//EN" "http://www.w3.org/Graphics/SVG/1.1/DTD/svg11.dtd">
<svg version="1.1" id="Layer_1" xmlns="http://www.w3.org/2000/svg" xmlns:xlink="http://www.w3.org/1999/xlink" x="0px" y="0px"
	 width="340.157px" height="113.387px" viewBox="0 0 340.157 113.387" enable-background="new 0 0 340.157 113.387"
	 xml:space="preserve">
<g>
	<g>
		<path fill="#EDECED" d="M127.985,48.99l0.072,3.168c1.115-2.411,3.635-3.35,5.902-3.35c1.332-0.036,2.629,0.324,3.816,1.044
			l-0.793,1.439c-0.936-0.575-1.979-0.827-3.023-0.827c-3.311,0.036-5.867,2.699-5.867,5.938V66.77h-1.764V48.99H127.985z"/>
		<path fill="#EDECED" d="M139.433,57.882c0-5.327,4.033-9.179,9.035-9.179c5.004,0,9.467,3.06,8.783,10.007h-16.018
			c0.359,4.175,3.564,6.587,7.234,6.587c2.34,0,5.076-0.938,6.408-2.7l1.26,1.008c-1.729,2.271-4.824,3.42-7.668,3.42
			C143.466,67.025,139.433,63.533,139.433,57.882z M155.667,57.162c-0.035-4.394-2.916-6.842-7.199-6.842
			c-3.67,0-6.838,2.484-7.234,6.842H155.667z"/>
		<path fill="#EDECED" d="M177.267,74.188V62.669c-1.513,2.951-4.317,4.428-7.342,4.428c-5.004,0-9.036-3.24-9.036-9.215
			c0-5.724,3.815-8.963,8.639-9.146c3.455,0,6.299,1.767,7.703,4.466V48.99h1.727v25.195L177.267,74.188L177.267,74.188z
			 M177.124,57.918c0-4.355-3.06-7.487-7.198-7.487c-4.031,0-7.272,2.447-7.272,7.451c0,5.003,3.241,7.521,7.272,7.521
			C173.993,65.405,177.124,62.274,177.124,57.918z"/>
		<path fill="#EDECED" d="M197.931,66.773V63.57c-1.367,2.447-3.853,3.455-6.336,3.491c-4.75,0-8.025-2.916-8.025-7.847V48.955
			h1.765v10.223c0,4.031,2.481,6.19,6.334,6.155c3.672-0.036,6.228-2.81,6.228-6.479v-9.896h1.767v17.815H197.931z"/>
		<path fill="#EDECED" d="M206.646,43.196c0,1.872-2.845,1.872-2.845,0C203.801,41.324,206.646,41.323,206.646,43.196z
			 M204.306,48.919v17.854h1.764V48.919H204.306z"/>
		<path fill="#EDECED" d="M212.765,48.99l0.071,3.168c1.115-2.411,3.636-3.35,5.901-3.35c1.332-0.036,2.63,0.324,3.816,1.044
			l-0.791,1.439c-0.938-0.575-1.979-0.827-3.025-0.827c-3.312,0.036-5.866,2.699-5.866,5.938V66.77h-1.765V48.99H212.765z"/>
		<path fill="#EDECED" d="M224.213,57.882c0-5.327,4.031-9.179,9.035-9.179c5.002,0,9.467,3.06,8.783,10.007h-16.021
			c0.36,4.175,3.563,6.587,7.235,6.587c2.34,0,5.074-0.938,6.405-2.7l1.261,1.008c-1.728,2.271-4.822,3.42-7.666,3.42
			C228.247,67.025,224.213,63.533,224.213,57.882z M240.45,57.162c-0.037-4.394-2.916-6.842-7.199-6.842
			c-3.672,0-6.84,2.484-7.235,6.842H240.45z"/>
		<path fill="#EDECED" d="M258.808,40.568c-9.072,6.336-9.539,22.14,0,29.051l-0.937,1.401c-10.547-6.803-10.547-25.017,0-31.817
			L258.808,40.568z"/>
		<path fill="#EDECED" d="M276.45,41.575v25.195h-1.765V41.575H276.45z"/>
		<path fill="#EDECED" d="M287.644,56.262l5.291-7.271h2.123v0.07l-6.371,8.495l6.875,9.145v0.07h-2.088l-5.83-7.955l-5.832,7.955
			h-2.088V66.7l6.875-9.145l-6.371-8.495v-0.07h2.123L287.644,56.262z"/>
		<path fill="#EDECED" d="M308.379,39.2c10.547,6.803,10.547,25.017,0,31.817l-0.938-1.401c9.539-6.911,9.07-22.715,0-29.051
			L308.379,39.2z"/>
	</g>
	<rect x="264.851" y="41.273" fill="#EDECED" width="1.5" height="6.167"/>
	<rect x="300.851" y="41.273" fill="#EDECED" width="1.5" height="6.167"/>
</g>
<g>
	<g>
		<path fill-rule="evenodd" clip-rule="evenodd" fill="#FFFFFF" d="M56.609,8.703c1.471-0.851,3.286-0.851,4.758,0l39.404,22.739
			c1.474,0.85,2.381,2.42,2.381,4.122v45.514c0,1.699-0.907,3.27-2.38,4.121l-39.403,22.758c-1.474,0.852-3.289,0.852-4.762,0
			L17.213,85.199c-1.473-0.852-2.379-2.422-2.379-4.121V35.563c0-1.701,0.906-3.271,2.38-4.121L56.609,8.703z"/>
	</g>
	<g>
		<path fill-rule="evenodd" clip-rule="evenodd" fill="#EDECED" d="M56.786,12.373c1.362-0.787,3.042-0.787,4.405,0L97.683,33.43
			c1.365,0.787,2.204,2.241,2.204,3.816v42.15c0,1.574-0.839,3.029-2.202,3.816l-36.492,21.074c-1.364,0.789-3.044,0.789-4.407,0
			L20.302,83.213c-1.363-0.787-2.202-2.242-2.202-3.816V37.246c0-1.574,0.839-3.028,2.204-3.815L56.786,12.373z"/>
	</g>
	<g>
		<path fill="#287FC0" d="M72.974,73.299v-8.023l-5.357-6.525l-4.444,5.418l9.279,11.314c0.68,0.828,1.668,1.258,2.661,1.258
			c0.169,0,0.338-0.014,0.507-0.039C74.125,76.459,72.974,75.031,72.974,73.299z"/>
		<path fill="#287FC0" d="M57.041,45.869c-1.205-1.47-3.405-1.617-4.872-0.414c-1.471,1.205-1.502,3.466-0.296,4.937l6.851,8.353
			l4.441-5.416L57.041,45.869z"/>
		<path fill="#287FC0" d="M72.974,52.219v-8.855c0-1.859,1.323-3.368,2.977-3.436c-1.049-0.049-2.107,0.378-2.824,1.252
			l-9.961,12.148l4.451,5.421L72.974,52.219z"/>
		<path fill="#287FC0" d="M49.606,69.858h1.601c1.123,0,3.055,1.541,3.055,3.441c0,1.865-2.021,3.379-3.158,3.436
			c0.043,0.002,0.087,0.006,0.13,0.006c0.994,0,1.982-0.43,2.66-1.258l9.278-11.314l-4.448-5.424L49.606,69.858z"/>
		<polygon fill="#005CA3" points="63.165,53.329 58.724,58.744 63.172,64.168 67.616,58.75 		"/>
		<path fill="#297CB8" d="M42.044,69.858h3.673V43.364c0-1.902-1.541-3.442-3.442-3.442c-1.899,0-3.44,1.54-3.44,3.442v29.935
			C38.834,71.399,40.924,69.858,42.044,69.858z"/>
		<path fill="#287FC0" d="M48.575,71.117l1.031-1.26h-3.89v3.441c0,1.902-1.541,3.441-3.442,3.441h8.762
			c0.021,0,0.044-0.004,0.067-0.006c-0.726-0.027-1.447-0.279-2.051-0.773C47.583,74.756,47.37,72.586,48.575,71.117z"/>
		<path fill="#005CA3" d="M54.262,73.299c0-1.9-1.932-3.441-3.055-3.441h-1.601l-1.031,1.26c-1.205,1.469-0.992,3.639,0.478,4.844
			c0.604,0.494,1.325,0.746,2.051,0.773C52.24,76.678,54.262,75.164,54.262,73.299z"/>
		<path fill="#005CA3" d="M45.717,73.299v-3.441h-3.673c-1.12,0-3.21,1.541-3.21,3.441c0,1.066,0.56,2.021,1.25,2.652
			c0.595,0.492,1.358,0.789,2.19,0.789C44.176,76.74,45.717,75.201,45.717,73.299z"/>
		<path fill="#287FC0" d="M78.447,45.544l-5.474,6.676v13.056l4.798,5.842c1.205,1.469,0.99,3.639-0.479,4.844
			c-0.498,0.408-1.078,0.65-1.674,0.74c0.146,0.021,0.294,0.039,0.444,0.039c1.705,0,3.089-1.539,3.089-3.441V44.07
			C79.042,44.594,78.811,45.1,78.447,45.544z"/>
		<path fill="#005CA3" d="M77.771,71.117l-4.798-5.842v8.023c0,1.732,1.151,3.16,2.646,3.402c0.596-0.09,1.176-0.332,1.674-0.74
			C78.762,74.756,78.977,72.586,77.771,71.117z"/>
		<path fill="#005CA3" d="M72.974,43.364v8.855l5.474-6.676c0.363-0.443,0.595-0.949,0.705-1.474v-0.706
			c0-0.823-0.26-1.578-0.692-2.171c-0.144-0.176-0.307-0.341-0.49-0.49c-0.596-0.489-1.306-0.741-2.02-0.774
			C74.297,39.996,72.974,41.505,72.974,43.364z"/>
	</g>
</g>
</svg>
