<?xml version="1.0" encoding="utf-8"?>
<!-- Generator: Adobe Illustrator 16.0.0, SVG Export Plug-In . SVG Version: 6.00 Build 0)  -->
<!DOCTYPE svg PUBLIC "-//W3C//DTD SVG 1.1//EN" "http://www.w3.org/Graphics/SVG/1.1/DTD/svg11.dtd">
<svg version="1.1" id="Layer_1" xmlns="http://www.w3.org/2000/svg" xmlns:xlink="http://www.w3.org/1999/xlink" x="0px" y="0px"
	 width="340.157px" height="113.387px" viewBox="0 0 340.157 113.387" enable-background="new 0 0 340.157 113.387"
	 xml:space="preserve">
<g>
	<g>
		<path fill="#333333" d="M127.985,48.99l0.071,3.168c1.116-2.41,3.637-3.349,5.904-3.349c1.331-0.036,2.627,0.324,3.814,1.044
			l-0.791,1.439c-0.936-0.575-1.98-0.827-3.023-0.827c-3.312,0.036-5.867,2.699-5.867,5.938V66.77h-1.764V48.99H127.985z"/>
		<path fill="#333333" d="M139.433,57.881c0-5.327,4.031-9.179,9.035-9.179c5.003,0,9.466,3.06,8.783,10.007h-16.019
			c0.361,4.175,3.564,6.587,7.236,6.587c2.339,0,5.074-0.938,6.406-2.7l1.26,1.008c-1.727,2.271-4.822,3.42-7.666,3.42
			C143.464,67.023,139.433,63.531,139.433,57.881z M155.667,57.161c-0.037-4.394-2.916-6.842-7.199-6.842
			c-3.672,0-6.84,2.484-7.236,6.842H155.667z"/>
		<path fill="#333333" d="M177.266,74.186V62.668c-1.512,2.951-4.32,4.428-7.343,4.428c-5.004,0-9.035-3.24-9.035-9.215
			c0-5.725,3.816-8.963,8.639-9.146c3.457,0,6.3,1.767,7.703,4.466v-4.214h1.729v25.197L177.266,74.186L177.266,74.186z
			 M177.122,57.917c0-4.355-3.059-7.487-7.199-7.487c-4.031,0-7.271,2.447-7.271,7.451c0,5.003,3.24,7.521,7.271,7.521
			C173.991,65.403,177.122,62.272,177.122,57.917z"/>
		<path fill="#333333" d="M197.93,66.771v-3.203c-1.367,2.447-3.852,3.455-6.336,3.491c-4.752,0-8.027-2.916-8.027-7.847V48.954
			h1.764v10.223c0,4.031,2.484,6.189,6.336,6.155c3.672-0.036,6.229-2.81,6.229-6.479v-9.896h1.768v17.815L197.93,66.771
			L197.93,66.771z"/>
		<path fill="#333333" d="M206.643,43.194c0,1.872-2.844,1.872-2.844,0S206.643,41.322,206.643,43.194z M204.303,48.918v17.854
			h1.764V48.918H204.303z"/>
		<path fill="#333333" d="M212.762,48.99l0.072,3.168c1.115-2.41,3.635-3.349,5.9-3.349c1.332-0.036,2.631,0.324,3.814,1.044
			l-0.791,1.439c-0.938-0.575-1.979-0.827-3.023-0.827c-3.312,0.036-5.865,2.699-5.865,5.938V66.77h-1.766V48.99H212.762z"/>
		<path fill="#333333" d="M224.211,57.881c0-5.327,4.031-9.179,9.035-9.179c5.002,0,9.467,3.06,8.782,10.007h-16.021
			c0.361,4.175,3.563,6.587,7.236,6.587c2.34,0,5.073-0.938,6.405-2.7l1.261,1.008c-1.728,2.271-4.822,3.42-7.666,3.42
			C228.243,67.023,224.211,63.531,224.211,57.881z M240.446,57.161c-0.037-4.394-2.916-6.842-7.199-6.842
			c-3.672,0-6.84,2.484-7.236,6.842H240.446z"/>
		<path fill="#333333" d="M258.805,40.566c-9.072,6.336-9.539,22.14,0,29.05l-0.936,1.402c-10.548-6.803-10.548-25.017,0-31.818
			L258.805,40.566z"/>
		<path fill="#333333" d="M276.446,41.573V66.77h-1.764V41.573H276.446z"/>
		<path fill="#333333" d="M287.641,56.26l5.291-7.271h2.123v0.071l-6.371,8.495l6.875,9.144v0.071h-2.088l-5.83-7.955l-5.832,7.955
			h-2.088v-0.071l6.875-9.144l-6.371-8.495V48.99h2.123L287.641,56.26z"/>
		<path fill="#333333" d="M308.377,39.198c10.547,6.804,10.547,25.018,0,31.818l-0.938-1.402c9.539-6.91,9.07-22.714,0-29.05
			L308.377,39.198z"/>
	</g>
	<rect x="264.848" y="41.271" fill="#333333" width="1.5" height="6.167"/>
	<rect x="300.848" y="41.271" fill="#333333" width="1.5" height="6.167"/>
</g>
<g>
	<g>
		<path fill-rule="evenodd" clip-rule="evenodd" fill="#333333" d="M54.038,7.736c1.454-0.84,3.245-0.84,4.694,0l38.883,22.438
			c1.453,0.838,2.349,2.389,2.349,4.067V79.15c0,1.676-0.896,3.229-2.346,4.066l-38.884,22.457c-1.451,0.84-3.242,0.84-4.697,0
			L15.166,83.216c-1.452-0.838-2.348-2.391-2.348-4.066V34.239c0-1.677,0.896-3.228,2.349-4.065L54.038,7.736z"/>
	</g>
	<g>
		<path fill-rule="evenodd" clip-rule="evenodd" fill="#333333" d="M54.213,11.357c1.346-0.777,3.003-0.777,4.348,0l36.007,20.777
			c1.346,0.777,2.174,2.211,2.174,3.767v41.591c0,1.552-0.828,2.987-2.172,3.765l-36.008,20.796c-1.346,0.777-3.003,0.777-4.349,0
			L18.214,81.256c-1.344-0.777-2.172-2.213-2.172-3.765V35.9c0-1.555,0.828-2.988,2.174-3.766L54.213,11.357z"/>
	</g>
	<path fill="#E8E7E7" d="M75.739,40.049c-0.009-0.014-0.018-0.023-0.024-0.036c-0.068-0.099-0.134-0.196-0.212-0.286
		c-0.56-0.722-1.376-1.187-2.297-1.187c-0.043,0-0.083,0.011-0.126,0.014c-1.031-0.043-2.067,0.368-2.772,1.229l-9.829,11.984
		l-6.043-7.359c-1.188-1.45-3.359-1.596-4.809-0.408c-1.449,1.189-1.481,3.42-0.291,4.871l6.759,8.242L47.1,68.079h-3.838V41.936
		c0-1.877-1.521-3.396-3.396-3.396c-1.876,0-3.396,1.519-3.396,3.396v29.538c0,1.028,0.467,1.937,1.188,2.56
		c0.542,0.515,1.17,0.837,1.671,0.837h9.182c0.031,0,0.066-0.005,0.099-0.009c0.031,0.001,0.064,0.009,0.097,0.009
		c0.979,0,1.955-0.425,2.625-1.242l9.154-11.163l9.156,11.163c0.671,0.817,1.646,1.242,2.626,1.242c0.18,0,0.36-0.018,0.536-0.046
		c0.135,0.02,0.265,0.046,0.402,0.046c1.682,0,3.048-1.521,3.048-3.396V42.562C76.417,41.697,76.238,40.795,75.739,40.049z
		 M64.872,57.118l5.283-6.444v12.882L64.872,57.118z"/>
</g>
</svg>
